<svg width="138" height="205" viewBox="0 0 138 205" fill="none" xmlns="http://www.w3.org/2000/svg">
<g filter="url(#filter0_d_445_6840)">
<g clip-path="url(#clip0_445_6840)">
<rect x="7" y="196.564" width="184.564" height="118" rx="12" transform="rotate(-90 7 196.564)" fill="url(#paint0_linear_445_6840)"/>
<g opacity="0.6">
<path d="M69.668 161.587C69.2319 161.151 68.6405 160.906 68.0237 160.906C67.407 160.906 66.8155 161.151 66.3794 161.587" stroke="white" stroke-width="1.51282" stroke-linecap="round" stroke-linejoin="round"/>
<path d="M70.8599 159.672C70.0539 159.03 69.0538 158.68 68.0233 158.68C66.9928 158.68 65.9928 159.03 65.187 159.673" stroke="white" stroke-width="1.51282" stroke-linecap="round" stroke-linejoin="round"/>
<path d="M72.023 157.974C70.8784 157.103 69.481 156.63 68.043 156.626C66.6049 156.621 65.2048 157.087 64.0552 157.951" stroke="white" stroke-width="1.51282" stroke-linecap="round" stroke-linejoin="round"/>
<path d="M62.845 156.078C64.3991 154.953 66.2772 154.364 68.1953 154.402C70.1135 154.439 71.9673 155.1 73.4765 156.284" stroke="white" stroke-width="1.51282" stroke-linecap="round" stroke-linejoin="round"/>
</g>
<rect x="60.596" y="184.613" width="19.564" height="14.2136" rx="3.78205" transform="rotate(-90 60.596 184.613)" fill="url(#paint1_linear_445_6840)" stroke="url(#paint2_linear_445_6840)" stroke-width="0.302564"/>
<mask id="mask0_445_6840" style="mask-type:alpha" maskUnits="userSpaceOnUse" x="60" y="165" width="15" height="20">
<rect x="60.8986" y="184.311" width="18.9589" height="13.6085" rx="3.47949" transform="rotate(-90 60.8986 184.311)" fill="#DCD59E" stroke="black" stroke-width="0.302564"/>
</mask>
<g mask="url(#mask0_445_6840)">
<path opacity="0.5" fill-rule="evenodd" clip-rule="evenodd" d="M64.0184 172.996C62.527 173.728 62.527 175.854 64.0184 176.586L64.728 176.935C64.728 176.935 67.3176 176.077 70.271 176.935L70.9824 176.621C72.5725 175.919 72.5725 173.663 70.9824 172.961L70.271 172.647C70.271 172.647 68.6659 173.505 64.728 172.647L64.0184 172.996Z" stroke="#BFB985" stroke-width="0.393333" stroke-linejoin="bevel"/>
<path opacity="0.5" d="M64.7091 184.651L64.7091 176.989" stroke="#BFB985" stroke-width="0.393333" stroke-linejoin="bevel"/>
<path opacity="0.5" d="M64.7091 172.829L64.7091 164.947" stroke="#BFB985" stroke-width="0.393333" stroke-linejoin="bevel"/>
<path opacity="0.5" d="M70.2283 184.651L70.2283 176.989" stroke="#BFB985" stroke-width="0.393333" stroke-linejoin="bevel"/>
<path opacity="0.5" d="M70.2283 172.829L70.2283 164.947" stroke="#BFB985" stroke-width="0.393333" stroke-linejoin="bevel"/>
</g>
<path d="M105.477 31.294C105.176 32.1377 105.025 33.0296 105.031 33.9277C105.031 36.8319 106.463 38.8829 108.519 38.8975C110.029 38.9156 110.88 37.4399 111.385 36.3236C111.904 35.1783 112.231 34.7953 112.695 34.7989C113.4 34.8062 113.72 35.7138 113.72 36.5578C113.72 37.7176 113.562 38.3511 113.165 39.3258L113 39.687L115.367 40.0991C115.655 39.393 115.902 38.1206 115.923 36.8064C115.923 33.7189 114.5 31.7005 112.312 31.6769C111.106 31.6515 110.194 32.4502 109.441 34.131C108.952 35.1529 108.626 35.7864 108.13 35.7864C107.691 35.7864 107.222 35.2436 107.222 34.1092C107.204 33.3542 107.343 32.6038 107.629 31.9075L107.748 31.6352L105.461 31.2232L105.477 31.294ZM105.223 23.7576L105.223 26.0265C105.223 26.7326 105.413 27.2644 106.099 27.573L115.776 31.9365L115.776 28.849L114.189 28.2319L114.192 24.4637C114.564 24.3747 115.776 24.1025 115.776 24.1025L115.776 21.3798L105.223 23.7576ZM105.134 43.074L105.134 40.1317L115.692 41.9723L115.692 44.9109L105.13 43.074L105.134 43.074ZM110.953 50.5432L112.419 50.2383L105.223 47.3631L105.223 44.2466L115.761 48.8769L115.761 51.9862L106.838 54.5274C106.691 54.5685 106.564 54.6652 106.484 54.7978C106.021 55.7137 105.67 56.6842 105.438 57.6875L105.216 57.6476L105.216 52.9119C105.241 52.2694 105.438 51.7521 106.109 51.5796L110.959 50.545L110.953 50.545L110.953 50.5432ZM112.03 27.3878L109.077 26.2153C109.109 26.2298 108.467 25.9739 108.071 25.825L108.983 25.6235L112.028 24.9429L112.028 27.3896L112.03 27.3896L112.03 27.3878Z" fill="white"/>
<path d="M113.451 186.247L109.215 186.247L109.215 184.595C109.215 184.224 109.274 183.908 109.391 183.645C109.508 183.383 109.677 183.181 109.899 183.04C110.121 182.899 110.385 182.828 110.692 182.828C110.998 182.828 111.263 182.899 111.485 183.04C111.702 183.181 111.872 183.383 111.993 183.645C112.11 183.908 112.168 184.224 112.168 184.595L112.168 185.915L111.884 185.642L113.451 185.642L113.451 186.247ZM111.944 185.642L111.642 185.915L111.642 184.614C111.642 184.226 111.559 183.934 111.394 183.736C111.228 183.534 110.994 183.434 110.692 183.434C110.389 183.434 110.155 183.534 109.99 183.736C109.824 183.934 109.742 184.226 109.742 184.614L109.742 185.915L109.439 185.642L111.944 185.642ZM111.043 181.389L111.043 179.21L111.557 179.21L111.557 181.389L111.043 181.389ZM112.925 181.334L112.925 178.865L113.451 178.865L113.451 181.939L109.215 181.939L109.215 178.95L109.742 178.95L109.742 181.334L112.925 181.334ZM113.451 177.886L109.215 177.886L109.215 176.1C109.215 175.649 109.304 175.251 109.482 174.908C109.659 174.561 109.907 174.293 110.226 174.103C110.545 173.91 110.914 173.813 111.333 173.813C111.753 173.813 112.122 173.91 112.441 174.103C112.759 174.293 113.007 174.561 113.185 174.908C113.362 175.251 113.451 175.649 113.451 176.1L113.451 177.886ZM112.925 177.28L112.925 176.137C112.925 175.786 112.858 175.483 112.725 175.229C112.592 174.971 112.406 174.771 112.168 174.63C111.926 174.489 111.648 174.418 111.333 174.418C111.015 174.418 110.736 174.489 110.498 174.63C110.26 174.771 110.075 174.971 109.941 175.229C109.808 175.483 109.742 175.786 109.742 176.137L109.742 177.28L112.925 177.28ZM113.451 172.886L109.215 172.886L109.215 171.234C109.215 170.863 109.274 170.546 109.391 170.284C109.508 170.022 109.677 169.82 109.899 169.679C110.121 169.538 110.385 169.467 110.692 169.467C110.998 169.467 111.263 169.538 111.485 169.679C111.702 169.82 111.87 170.022 111.987 170.284C112.104 170.546 112.162 170.863 112.162 171.234L112.162 172.553L111.884 172.281L113.451 172.281L113.451 172.886ZM113.451 170.054L111.914 171.131L111.914 170.484L113.451 169.395L113.451 170.054ZM111.944 172.281L111.648 172.553L111.648 171.252C111.648 170.865 111.565 170.573 111.4 170.375C111.23 170.173 110.994 170.072 110.692 170.072C110.389 170.072 110.155 170.173 109.99 170.375C109.824 170.573 109.742 170.865 109.742 171.252L109.742 172.553L109.439 172.281L111.944 172.281ZM113.5 166.577C113.5 166.9 113.445 167.201 113.336 167.479C113.227 167.753 113.076 167.991 112.882 168.193C112.685 168.395 112.455 168.552 112.193 168.665C111.93 168.778 111.644 168.834 111.333 168.834C111.023 168.834 110.736 168.778 110.474 168.665C110.212 168.552 109.984 168.395 109.79 168.193C109.592 167.991 109.439 167.753 109.33 167.479C109.221 167.205 109.167 166.904 109.167 166.577C109.167 166.255 109.221 165.958 109.33 165.688C109.435 165.413 109.586 165.175 109.784 164.974C109.978 164.768 110.206 164.611 110.468 164.502C110.73 164.389 111.019 164.332 111.333 164.332C111.648 164.332 111.936 164.389 112.199 164.502C112.461 164.611 112.691 164.768 112.888 164.974C113.082 165.175 113.233 165.413 113.342 165.688C113.447 165.958 113.5 166.255 113.5 166.577ZM112.961 166.577C112.961 166.343 112.921 166.127 112.84 165.93C112.759 165.728 112.646 165.555 112.501 165.409C112.352 165.26 112.178 165.145 111.981 165.064C111.783 164.98 111.567 164.937 111.333 164.937C111.099 164.937 110.883 164.98 110.686 165.064C110.488 165.145 110.317 165.26 110.171 165.409C110.022 165.555 109.907 165.728 109.826 165.93C109.746 166.127 109.705 166.343 109.705 166.577C109.705 166.815 109.746 167.035 109.826 167.237C109.907 167.435 110.022 167.608 110.171 167.757C110.317 167.907 110.488 168.024 110.686 168.108C110.883 168.189 111.099 168.229 111.333 168.229C111.567 168.229 111.783 168.189 111.981 168.108C112.178 168.024 112.352 167.907 112.501 167.757C112.646 167.608 112.759 167.435 112.84 167.237C112.921 167.035 112.961 166.815 112.961 166.577ZM113.451 161.782L109.215 161.782L109.215 160.13C109.215 159.759 109.274 159.442 109.391 159.18C109.508 158.918 109.677 158.716 109.899 158.575C110.121 158.434 110.385 158.363 110.692 158.363C110.998 158.363 111.263 158.434 111.485 158.575C111.702 158.716 111.872 158.918 111.993 159.18C112.11 159.442 112.168 159.759 112.168 160.13L112.168 161.449L111.884 161.177L113.451 161.177L113.451 161.782ZM111.944 161.177L111.642 161.449L111.642 160.148C111.642 159.761 111.559 159.469 111.394 159.271C111.228 159.069 110.994 158.968 110.692 158.968C110.389 158.968 110.155 159.069 109.99 159.271C109.824 159.469 109.742 159.761 109.742 160.148L109.742 161.449L109.439 161.177L111.944 161.177ZM113.5 153.878C113.5 154.205 113.447 154.505 113.342 154.78C113.233 155.054 113.082 155.292 112.888 155.494C112.691 155.695 112.461 155.853 112.199 155.966C111.936 156.079 111.648 156.135 111.333 156.135C111.019 156.135 110.73 156.079 110.468 155.966C110.206 155.853 109.978 155.695 109.784 155.494C109.586 155.288 109.435 155.048 109.33 154.773C109.221 154.499 109.167 154.197 109.167 153.866C109.167 153.531 109.221 153.224 109.33 152.946C109.439 152.668 109.603 152.432 109.82 152.238L110.196 152.613C110.026 152.787 109.903 152.976 109.826 153.182C109.746 153.384 109.705 153.604 109.705 153.842C109.705 154.084 109.746 154.31 109.826 154.519C109.907 154.725 110.02 154.905 110.165 155.058C110.311 155.207 110.484 155.324 110.686 155.409C110.883 155.49 111.099 155.53 111.333 155.53C111.563 155.53 111.779 155.49 111.981 155.409C112.178 155.324 112.352 155.207 112.501 155.058C112.646 154.905 112.759 154.725 112.84 154.519C112.921 154.314 112.961 154.09 112.961 153.848C112.961 153.622 112.927 153.406 112.858 153.2C112.786 152.99 112.667 152.797 112.501 152.619L112.961 152.274C113.139 152.484 113.274 152.73 113.366 153.013C113.455 153.291 113.5 153.579 113.5 153.878ZM112.882 152.855L111.309 152.855L111.309 152.274L112.961 152.274L112.882 152.855ZM113.451 149.491L109.215 149.491L109.215 147.705C109.215 147.254 109.304 146.856 109.482 146.513C109.659 146.166 109.907 145.898 110.226 145.709C110.545 145.515 110.914 145.418 111.333 145.418C111.753 145.418 112.122 145.515 112.441 145.709C112.759 145.898 113.007 146.166 113.185 146.513C113.362 146.856 113.451 147.254 113.451 147.705L113.451 149.491ZM112.925 148.885L112.925 147.742C112.925 147.391 112.858 147.088 112.725 146.834C112.592 146.576 112.406 146.376 112.168 146.235C111.926 146.094 111.648 146.023 111.333 146.023C111.015 146.023 110.736 146.094 110.498 146.235C110.26 146.376 110.075 146.576 109.941 146.834C109.808 147.088 109.742 147.391 109.742 147.742L109.742 148.885L112.925 148.885ZM113.451 144.491L109.215 144.491L109.215 143.886L113.451 143.886L113.451 144.491ZM113.451 143.259L109.215 141.341L109.215 140.742L113.451 138.818L113.451 139.453L109.554 141.166L109.554 140.924L113.451 142.636L113.451 143.259ZM112.392 142.442L111.908 142.279L111.908 139.895L112.392 139.719L112.392 142.442ZM113.5 136.951C113.5 137.274 113.451 137.583 113.354 137.877C113.253 138.172 113.124 138.404 112.967 138.573L112.495 138.349C112.636 138.188 112.753 137.982 112.846 137.732C112.939 137.482 112.985 137.222 112.985 136.951C112.985 136.705 112.957 136.506 112.901 136.352C112.844 136.199 112.767 136.086 112.671 136.013C112.57 135.941 112.457 135.904 112.332 135.904C112.186 135.904 112.069 135.953 111.981 136.05C111.892 136.143 111.821 136.266 111.769 136.419C111.712 136.568 111.664 136.734 111.624 136.915C111.583 137.097 111.537 137.28 111.485 137.466C111.428 137.647 111.357 137.815 111.273 137.968C111.188 138.117 111.075 138.238 110.934 138.331C110.789 138.424 110.603 138.47 110.377 138.47C110.159 138.47 109.96 138.414 109.778 138.301C109.592 138.184 109.445 138.006 109.336 137.768C109.223 137.526 109.167 137.22 109.167 136.848C109.167 136.602 109.199 136.358 109.264 136.116C109.328 135.874 109.421 135.664 109.542 135.487L110.026 135.687C109.905 135.868 109.818 136.06 109.766 136.262C109.709 136.463 109.681 136.659 109.681 136.848C109.681 137.087 109.711 137.282 109.772 137.435C109.833 137.589 109.913 137.702 110.014 137.774C110.115 137.843 110.228 137.877 110.353 137.877C110.502 137.877 110.621 137.831 110.71 137.738C110.799 137.641 110.869 137.518 110.922 137.369C110.974 137.216 111.023 137.048 111.067 136.867C111.107 136.685 111.154 136.504 111.206 136.322C111.259 136.136 111.327 135.969 111.412 135.82C111.497 135.666 111.61 135.543 111.751 135.451C111.892 135.358 112.073 135.311 112.295 135.311C112.509 135.311 112.709 135.37 112.894 135.487C113.076 135.604 113.223 135.785 113.336 136.032C113.445 136.274 113.5 136.58 113.5 136.951Z" fill="white"/>
<path d="M29.856 181.984L22.5764 181.984L22.5764 184.462L21.3152 184.462L21.3152 177.912L22.5764 177.912L22.5764 180.413L29.856 180.413L29.856 181.984Z" fill="white"/>
<path d="M29.8561 177.646L23.8155 177.646L23.8155 176.253L24.944 176.098C24.5457 175.876 24.2359 175.589 24.0147 175.213C23.7934 174.836 23.6606 174.394 23.6606 173.885L25.298 173.885L25.298 174.328C25.298 174.659 25.3423 174.969 25.4529 175.235C25.5635 175.5 25.7405 175.721 26.0061 175.854C26.2716 176.009 26.6256 176.076 27.0902 176.076L29.8339 176.076L29.8339 177.646L29.8561 177.646Z" fill="white"/>
<path d="M29.9889 170.81C29.9889 171.563 29.7455 172.138 29.2808 172.558C28.8162 172.979 28.1302 173.178 27.2009 173.178L23.7935 173.178L23.7935 171.629L27.046 171.629C27.5549 171.629 27.9532 171.518 28.2409 171.319C28.5064 171.098 28.6613 170.766 28.6613 170.323C28.6613 169.903 28.5064 169.549 28.1966 169.261C27.8868 168.974 27.4664 168.841 26.9133 168.841L23.7935 168.841L23.7935 167.292L29.834 167.292L29.834 168.664L28.8162 168.797C29.1702 168.974 29.4578 169.261 29.6791 169.615C29.9004 169.925 29.9889 170.346 29.9889 170.81Z" fill="white"/>
<path d="M29.9889 163.42C29.9889 163.951 29.9004 164.415 29.7234 164.836C29.5464 165.234 29.303 165.566 28.9932 165.809C28.6834 166.053 28.3294 166.208 27.9311 166.252L27.9311 164.681C28.1745 164.637 28.3737 164.504 28.5286 164.283C28.7056 164.061 28.772 163.796 28.772 163.442C28.772 163.11 28.7056 162.844 28.5728 162.69C28.44 162.535 28.2852 162.446 28.1082 162.446C27.8426 162.446 27.6656 162.557 27.5771 162.778C27.4886 162.999 27.4001 163.331 27.3116 163.73C27.2452 163.995 27.1788 164.261 27.1125 164.526C27.024 164.792 26.9354 165.035 26.8027 165.256C26.6699 165.478 26.515 165.655 26.3159 165.787C26.1168 165.92 25.8734 165.986 25.5857 165.986C25.0547 165.986 24.59 165.765 24.236 165.345C23.8599 164.924 23.6829 164.327 23.6829 163.553C23.6829 162.844 23.8599 162.269 24.1918 161.849C24.5237 161.428 24.9883 161.163 25.5636 161.096L25.5636 162.579C25.1211 162.667 24.8998 162.999 24.8998 163.597C24.8998 163.884 24.9662 164.106 25.0768 164.283C25.1875 164.438 25.3423 164.526 25.4972 164.526C25.6742 164.526 25.807 164.415 25.9176 164.172C26.0283 163.929 26.1168 163.619 26.2053 163.243C26.2938 162.822 26.4044 162.424 26.5372 162.07C26.6478 161.716 26.8248 161.428 27.0682 161.229C27.2895 161.008 27.6214 160.919 28.0639 160.919C28.4401 160.919 28.7719 161.008 29.0817 161.207C29.3915 161.406 29.6128 161.694 29.7898 162.092C29.9668 162.49 29.9889 162.911 29.9889 163.42Z" fill="white"/>
<path d="M29.856 157.268C29.856 157.91 29.7011 158.419 29.3913 158.795C29.0815 159.171 28.5284 159.37 27.7539 159.37L25.1209 159.37L25.1209 160.41L23.8154 160.41L23.8154 159.37L22.2002 159.193L22.2002 157.821L23.8154 157.821L23.8154 156.184L25.1209 156.184L25.1209 157.821L27.7539 157.821C28.0416 157.821 28.2407 157.755 28.3514 157.622C28.462 157.489 28.5062 157.29 28.5062 156.981L28.5062 156.228L29.8338 156.228L29.8338 157.268L29.856 157.268Z" fill="white"/>
<path d="M29.8561 155.033L21.3374 155.033L21.3374 151.604C21.3374 150.719 21.5365 150.033 21.9569 149.568C22.3773 149.103 22.8863 148.86 23.5279 148.86C24.059 148.86 24.5015 149.015 24.8113 149.302C25.1432 149.59 25.3423 149.944 25.4529 150.365C25.5414 149.878 25.7848 149.479 26.1831 149.17C26.5593 148.86 27.0239 148.705 27.5328 148.705C28.1966 148.705 28.7719 148.948 29.1923 149.435C29.6348 149.922 29.8561 150.608 29.8561 151.515L29.8561 155.033ZM24.8998 153.484L24.8998 151.847C24.8998 151.404 24.7891 151.073 24.59 150.829C24.3909 150.586 24.1032 150.475 23.7271 150.475C23.373 150.475 23.0854 150.586 22.8863 150.829C22.6871 151.05 22.5765 151.404 22.5765 151.869L22.5765 153.484L24.8998 153.484ZM28.5949 153.484L28.5949 151.736C28.5949 151.272 28.4843 150.918 28.263 150.652C28.0417 150.387 27.7541 150.276 27.3558 150.276C26.9575 150.276 26.6478 150.409 26.4265 150.674C26.2052 150.94 26.0946 151.294 26.0946 151.758L26.0946 153.484L28.5949 153.484Z" fill="white"/>
<path d="M29.9888 145.564C29.9888 146.073 29.9003 146.515 29.7454 146.847C29.5684 147.179 29.3471 147.422 29.0816 147.599C28.8161 147.754 28.5063 147.843 28.1745 147.843C27.6213 147.843 27.1566 147.622 26.8026 147.179C26.4486 146.736 26.2716 146.073 26.2716 145.21L26.2716 143.683L26.1388 143.683C25.7184 143.683 25.4308 143.794 25.2316 144.037C25.0325 144.28 24.944 144.568 24.944 144.922C24.944 145.232 25.0104 145.519 25.1652 145.741C25.3201 145.984 25.5414 146.117 25.829 146.183L25.829 147.71C25.3865 147.666 25.0104 147.511 24.6785 147.267C24.3466 147.002 24.1032 146.692 23.9262 146.272C23.7492 145.874 23.6606 145.409 23.6606 144.9C23.6606 144.037 23.8819 143.351 24.3023 142.864C24.7227 142.378 25.3423 142.112 26.1388 142.112L29.8561 142.112L29.8561 143.44L28.8825 143.595C29.2144 143.772 29.4799 144.015 29.679 144.347C29.9003 144.634 29.9888 145.055 29.9888 145.564ZM28.7719 145.21C28.7719 144.767 28.617 144.413 28.3293 144.17C28.0417 143.926 27.6655 143.772 27.2451 143.705L27.2451 145.033C27.2451 145.453 27.3115 145.741 27.4664 145.918C27.6213 146.095 27.7983 146.183 28.0196 146.183C28.263 146.183 28.44 146.095 28.5727 145.918C28.7055 145.741 28.7719 145.497 28.7719 145.21Z" fill="white"/>
<path d="M29.8561 140.851L23.8155 140.851L23.8155 139.479L24.8333 139.368C24.4793 139.191 24.1917 138.903 23.9704 138.549C23.7492 138.195 23.6606 137.775 23.6606 137.31C23.6606 136.558 23.904 135.983 24.3687 135.562C24.8334 135.142 25.5193 134.943 26.4486 134.943L29.8561 134.943L29.8561 136.492L26.5813 136.492C26.0724 136.492 25.6742 136.602 25.3865 136.801C25.121 137.023 24.9661 137.332 24.9661 137.797C24.9661 138.24 25.121 138.594 25.4308 138.881C25.7405 139.169 26.1609 139.302 26.7141 139.302L29.8339 139.302L29.8339 140.851L29.8561 140.851Z" fill="white"/>
<path d="M29.8561 133.704L21.094 133.704L21.094 132.155L26.2716 132.155L23.8155 130.009L23.8155 128.15L26.5592 130.629L29.8561 127.752L29.8561 129.699L26.8247 132.155L29.8561 132.155L29.8561 133.704Z" fill="white"/>
<path d="M25.5414 126.269C25.5414 126.446 25.4971 126.601 25.4307 126.734C25.3643 126.867 25.2537 126.977 25.121 127.044C24.9882 127.11 24.8333 127.154 24.6563 127.154C24.4793 127.154 24.3244 127.11 24.1916 127.044C24.0589 126.977 23.9483 126.867 23.8819 126.734C23.7934 126.601 23.7712 126.446 23.7712 126.269C23.7712 126.092 23.8155 125.959 23.8819 125.827C23.9704 125.694 24.0589 125.583 24.1916 125.517C24.3244 125.451 24.4793 125.406 24.6563 125.406C24.8333 125.406 24.9882 125.451 25.121 125.517C25.2537 125.583 25.3643 125.694 25.4307 125.827C25.5192 125.959 25.5414 126.114 25.5414 126.269ZM25.3865 126.269C25.3865 126.048 25.3201 125.893 25.1873 125.76C25.0546 125.628 24.8776 125.561 24.6563 125.561C24.435 125.561 24.258 125.628 24.1253 125.76C23.9925 125.893 23.9261 126.048 23.9261 126.269C23.9261 126.491 23.9925 126.668 24.1253 126.778C24.258 126.911 24.435 126.977 24.6563 126.977C24.8776 126.977 25.0546 126.911 25.1873 126.778C25.3201 126.668 25.3865 126.491 25.3865 126.269ZM25.121 126.623L24.1695 126.623L24.1695 126.203C24.1695 126.114 24.1917 126.026 24.2359 125.959C24.2802 125.893 24.3687 125.871 24.4572 125.871C24.5235 125.871 24.5899 125.893 24.6342 125.937C24.6784 125.982 24.7227 126.026 24.7227 126.092L25.0988 125.849L25.0988 126.092L24.7227 126.314L24.7227 126.402L25.0988 126.402L25.0988 126.623L25.121 126.623ZM24.5899 126.424L24.5899 126.225C24.5899 126.181 24.5899 126.159 24.5678 126.136C24.5457 126.114 24.5235 126.092 24.4793 126.092C24.435 126.092 24.4129 126.114 24.3908 126.136C24.3687 126.159 24.3687 126.203 24.3687 126.225L24.3687 126.424L24.5899 126.424Z" fill="white"/>
<g opacity="0.3">
<path d="M5.30493 -17.3997L5.30493 56.2715C5.30493 59.7682 7.23414 62.9031 10.3691 64.35L15.5538 67.0026C18.5681 68.5701 22.306 68.2084 25.0792 66.1586L32.796 60.371C29.2993 62.7825 24.3557 60.2504 24.3557 55.7892L24.3557 -3.77471L5.30493 -17.882C5.30493 -17.6408 5.30493 -17.5203 5.30493 -17.3997Z" fill="url(#paint3_linear_445_6840)"/>
<path d="M24.356 -27.4073L24.356 -3.65408L52.0881 16.9642L55.5848 19.6168L55.7054 19.6168L24.356 42.8877L24.356 55.9099C24.356 60.2506 29.1789 62.7826 32.7962 60.4917L37.981 56.6333L74.7563 29.2628C76.4443 27.5748 77.4088 25.4044 77.4088 22.9929L77.4088 16.4819C77.4088 13.7087 76.0826 11.0561 73.9122 9.48859L71.0184 7.31819L24.8383 -26.925C24.7177 -27.1661 24.4765 -27.2867 24.356 -27.4073Z" fill="url(#paint4_linear_445_6840)"/>
<path d="M24.3559 55.7892L24.3559 42.7671L13.866 50.6045C10.2487 53.2571 5.18457 50.7251 5.18457 46.2638L5.18457 56.2715C5.18457 59.7682 7.11378 62.9031 10.2487 64.35L15.4334 67.0026C18.4478 68.5701 22.1856 68.2084 24.9588 66.1586L32.6756 60.371C29.1789 62.7825 24.3559 60.2504 24.3559 55.7892Z" fill="url(#paint5_linear_445_6840)"/>
</g>
</g>
</g>
<defs>
<filter id="filter0_d_445_6840" x="2.38419e-07" y="0" width="138" height="204.564" filterUnits="userSpaceOnUse" color-interpolation-filters="sRGB">
<feFlood flood-opacity="0" result="BackgroundImageFix"/>
<feColorMatrix in="SourceAlpha" type="matrix" values="0 0 0 0 0 0 0 0 0 0 0 0 0 0 0 0 0 0 127 0" result="hardAlpha"/>
<feOffset dx="3" dy="-2"/>
<feGaussianBlur stdDeviation="5"/>
<feComposite in2="hardAlpha" operator="out"/>
<feColorMatrix type="matrix" values="0 0 0 0 0.164706 0 0 0 0 0.160784 0 0 0 0 0.192157 0 0 0 0.3 0"/>
<feBlend mode="normal" in2="BackgroundImageFix" result="effect1_dropShadow_445_6840"/>
<feBlend mode="normal" in="SourceGraphic" in2="effect1_dropShadow_445_6840" result="shape"/>
</filter>
<linearGradient id="paint0_linear_445_6840" x1="7" y1="255.564" x2="191.564" y2="255.564" gradientUnits="userSpaceOnUse">
<stop stop-color="#172F99"/>
<stop offset="0.567708" stop-color="#6625B4"/>
<stop offset="1" stop-color="#AA1DCC"/>
</linearGradient>
<linearGradient id="paint1_linear_445_6840" x1="70.378" y1="184.462" x2="77.0125" y2="203.659" gradientUnits="userSpaceOnUse">
<stop stop-color="#DCD59E"/>
<stop offset="1" stop-color="#CBBB82"/>
</linearGradient>
<linearGradient id="paint2_linear_445_6840" x1="62.0314" y1="185.254" x2="70.378" y2="198.373" gradientUnits="userSpaceOnUse">
<stop stop-color="#FBF3C0"/>
<stop offset="1" stop-color="#CCBC84"/>
</linearGradient>
<linearGradient id="paint3_linear_445_6840" x1="7.37793" y1="64.9788" x2="51.2641" y2="50.6852" gradientUnits="userSpaceOnUse">
<stop stop-color="white" stop-opacity="0.5"/>
<stop offset="0.0557898" stop-color="white" stop-opacity="0.53"/>
<stop offset="0.5029" stop-color="white" stop-opacity="0.5"/>
<stop offset="1" stop-color="white" stop-opacity="0"/>
</linearGradient>
<linearGradient id="paint4_linear_445_6840" x1="28.3565" y1="58.2563" x2="96.752" y2="16.6736" gradientUnits="userSpaceOnUse">
<stop stop-color="white" stop-opacity="0.5"/>
<stop offset="0.0557898" stop-color="white" stop-opacity="0.53"/>
<stop offset="0.5029" stop-color="white" stop-opacity="0.5"/>
<stop offset="1" stop-color="white" stop-opacity="0"/>
</linearGradient>
<linearGradient id="paint5_linear_445_6840" x1="7.25757" y1="67.095" x2="36.3273" y2="5.4132" gradientUnits="userSpaceOnUse">
<stop stop-color="white" stop-opacity="0.4"/>
<stop offset="0.0557898" stop-color="white" stop-opacity="0.35"/>
<stop offset="0.125" stop-color="white" stop-opacity="0.48"/>
<stop offset="0.5029" stop-color="white" stop-opacity="0.15"/>
<stop offset="1" stop-color="white" stop-opacity="0.5"/>
</linearGradient>
<clipPath id="clip0_445_6840">
<rect x="7" y="196.564" width="184.564" height="118" rx="12" transform="rotate(-90 7 196.564)" fill="white"/>
</clipPath>
</defs>
</svg>
