<svg width="24" height="26" viewBox="0 0 24 26" fill="none" xmlns="http://www.w3.org/2000/svg">
<g clip-path="url(#clip0_445_6206)">
<path d="M17.0349 20.7791C17.0113 20.7698 16.9878 20.7604 16.9643 20.7507C16.4151 20.524 15.9163 20.1908 15.4965 19.7703C15.4965 19.7702 15.4964 19.7702 15.4964 19.7701C15.4962 19.77 15.4961 19.7698 15.496 19.7697L12.1352 16.4068L8.76315 19.7788C8.76286 19.7791 8.76256 19.7794 8.76227 19.7797C8.34291 20.2007 7.84434 20.5344 7.29533 20.7617C7.20858 20.7976 7.12084 20.8307 7.03224 20.8611L10.1242 23.953C10.6201 24.4479 11.2922 24.7259 11.9929 24.7259C12.6935 24.7259 13.3655 24.4479 13.8615 23.9531C13.8615 23.953 13.8616 23.953 13.8616 23.953L17.0349 20.7791ZM17.0349 20.7791C17.3989 20.9222 17.7794 21.017 18.1667 21.0615L14.5679 24.6609C13.8845 25.3429 12.9584 25.7259 11.9929 25.7259C11.0273 25.7259 10.1013 25.3429 9.4178 24.6609L5.85224 21.0953" stroke="#CA34ED" stroke-width="2"/>
<path d="M18.1572 6.41767L14.5603 2.82081C14.2222 2.48257 13.8208 2.21425 13.3789 2.03119C12.9371 1.84813 12.4635 1.75391 11.9853 1.75391C11.507 1.75391 11.0334 1.84813 10.5916 2.03119L18.1572 6.41767ZM18.1572 6.41767C17.7706 6.46316 17.391 6.55876 17.0279 6.70255M18.1572 6.41767L17.0279 6.70255M17.0279 6.70255L13.8532 3.52792L13.8531 3.52779C13.6078 3.28244 13.3167 3.08782 12.9962 2.95503C12.6757 2.82225 12.3322 2.75391 11.9853 2.75391C11.6384 2.75391 11.2949 2.82225 10.9744 2.95504C10.654 3.08779 10.3628 3.28236 10.1176 3.52762L9.4105 2.8211L10.1174 3.52779L7.03157 6.61624C7.12066 6.64671 7.20889 6.68002 7.29612 6.71613C7.84519 6.94344 8.34381 7.27725 8.76317 7.6983C8.76344 7.69857 8.7637 7.69883 8.76397 7.6991L12.1361 11.0719L15.4944 7.7135C15.4948 7.71315 15.4952 7.71279 15.4955 7.71243C15.9146 7.29082 16.4133 6.95656 16.9625 6.72902C16.9842 6.72002 17.006 6.7112 17.0279 6.70255Z" stroke="#CA34ED" stroke-width="2"/>
<mask id="path-3-inside-1_445_6206" fill="white">
<path d="M22.9033 11.1645L20.1441 8.40522C20.0818 8.43065 20.0153 8.44406 19.9481 8.44471H18.6934C18.0405 8.44635 17.4147 8.70564 16.9519 9.16623L13.3565 12.7594C13.0327 13.0826 12.5939 13.2641 12.1363 13.2641C11.6788 13.2641 11.24 13.0826 10.9162 12.7594L7.30711 9.15256C6.84448 8.69169 6.2186 8.43212 5.56559 8.43028H4.02534C3.96186 8.42885 3.89913 8.41625 3.84002 8.39307L1.06331 11.1645C0.381313 11.8479 -0.00170898 12.774 -0.00170898 13.7395C-0.00170898 14.705 0.381313 15.6311 1.06331 16.3146L3.83395 19.0852C3.89293 19.0616 3.95574 19.049 4.01926 19.048H5.56559C6.21858 19.0461 6.84443 18.7865 7.30711 18.3257L10.9155 14.7174C11.5679 14.0657 12.7048 14.0657 13.3565 14.7174L16.9519 18.3121C17.4147 18.7726 18.0405 19.0319 18.6934 19.0336H19.9481C20.0154 19.034 20.0819 19.0475 20.1441 19.0731L22.9033 16.3138C23.2416 15.9757 23.5099 15.5743 23.6929 15.1324C23.876 14.6906 23.9702 14.217 23.9702 13.7388C23.9702 13.2605 23.876 12.7869 23.6929 12.3451C23.5099 11.9033 23.2416 11.5018 22.9033 11.1637"/>
</mask>
<path d="M20.1441 8.40522L21.5583 6.991L20.6181 6.05085L19.3874 6.55388L20.1441 8.40522ZM19.9481 8.44471V10.4447H19.9579L19.9677 10.4446L19.9481 8.44471ZM18.6934 8.44471V6.44471L18.6884 6.44472L18.6934 8.44471ZM16.9519 9.16623L15.541 7.7487L15.5382 7.75157L16.9519 9.16623ZM13.3565 12.7594L14.7694 14.1749L14.7702 14.1741L13.3565 12.7594ZM10.9162 12.7594L9.50245 14.1741L9.50329 14.1749L10.9162 12.7594ZM7.30711 9.15256L8.72088 7.7379L8.71862 7.73565L7.30711 9.15256ZM5.56559 8.43028L5.57121 6.43028H5.56559V8.43028ZM4.02534 8.43028L3.98032 10.4298L4.00282 10.4303H4.02534V8.43028ZM3.84002 8.39307L4.57044 6.53121L3.35288 6.05356L2.42716 6.9775L3.84002 8.39307ZM1.06331 11.1645L-0.349548 9.74889L-0.352404 9.75175L1.06331 11.1645ZM-0.00170898 13.7395H-2.00171H-0.00170898ZM1.06331 16.3146L-0.352405 17.7273L-0.350901 17.7288L1.06331 16.3146ZM3.83395 19.0852L2.41973 20.4994L3.35261 21.4323L4.57738 20.9419L3.83395 19.0852ZM4.01926 19.048V17.048H4.00375L3.98824 17.0482L4.01926 19.048ZM5.56559 19.048V21.048L5.57146 21.048L5.56559 19.048ZM7.30711 18.3257L8.71844 19.7428L8.72132 19.7399L7.30711 18.3257ZM10.9155 14.7174L9.50207 13.3023L9.50125 13.3032L10.9155 14.7174ZM13.3565 14.7174L11.9423 16.1316L11.9424 16.1317L13.3565 14.7174ZM16.9519 18.3121L15.5378 19.7264L15.541 19.7296L16.9519 18.3121ZM18.6934 19.0336L18.6884 21.0336H18.6934V19.0336ZM19.9481 19.0336L19.9621 17.0336H19.9481V19.0336ZM20.1441 19.0731L19.3823 20.9223L20.6153 21.4303L21.5583 20.4873L20.1441 19.0731ZM22.9033 16.3138L21.4894 14.8993L21.4891 14.8996L22.9033 16.3138ZM24.3175 9.75025L21.5583 6.991L18.7299 9.81943L21.4891 12.5787L24.3175 9.75025ZM19.3874 6.55388C19.5593 6.48363 19.7429 6.44662 19.9286 6.44481L19.9677 10.4446C20.2878 10.4415 20.6044 10.3777 20.9008 10.2566L19.3874 6.55388ZM19.9481 6.44471H18.6934V10.4447H19.9481V6.44471ZM18.6884 6.44472C17.5085 6.44767 16.3774 6.91629 15.541 7.7487L18.3628 10.5838C18.452 10.495 18.5726 10.445 18.6984 10.4447L18.6884 6.44472ZM15.5382 7.75157L11.9427 11.3447L14.7702 14.1741L18.3657 10.5809L15.5382 7.75157ZM11.9435 11.3439C11.9947 11.2928 12.0641 11.2641 12.1363 11.2641V15.2641C13.1237 15.2641 14.0706 14.8724 14.7694 14.1749L11.9435 11.3439ZM12.1363 11.2641C12.2086 11.2641 12.278 11.2928 12.3292 11.3439L9.50329 14.1749C10.2021 14.8724 11.149 15.2641 12.1363 15.2641V11.2641ZM12.33 11.3447L8.72088 7.7379L5.89334 10.5672L9.50245 14.1741L12.33 11.3447ZM8.71862 7.73565C7.88252 6.90273 6.75138 6.43361 5.57121 6.43029L5.55997 10.4303C5.68582 10.4306 5.80644 10.4807 5.8956 10.5695L8.71862 7.73565ZM5.56559 6.43028H4.02534V10.4303H5.56559V6.43028ZM4.07036 6.43079C4.24165 6.43465 4.41093 6.46864 4.57044 6.53121L3.10961 10.2549C3.38733 10.3639 3.68207 10.4231 3.98032 10.4298L4.07036 6.43079ZM2.42716 6.9775L-0.349545 9.74889L2.47617 12.58L5.25288 9.80863L2.42716 6.9775ZM-0.352404 9.75175C-1.40856 10.8102 -2.00171 12.2443 -2.00171 13.7395H1.99829C1.99829 13.3037 2.17118 12.8857 2.47903 12.5772L-0.352404 9.75175ZM-2.00171 13.7395C-2.00171 15.2347 -1.40856 16.6689 -0.352404 17.7273L2.47903 14.9019C2.17118 14.5934 1.99829 14.1753 1.99829 13.7395H-2.00171ZM-0.350901 17.7288L2.41973 20.4994L5.24816 17.671L2.47753 14.9004L-0.350901 17.7288ZM4.57738 20.9419C4.4096 21.0091 4.23095 21.045 4.05028 21.0478L3.98824 17.0482C3.68052 17.053 3.37626 17.1141 3.09052 17.2285L4.57738 20.9419ZM4.01926 21.048H5.56559V17.048H4.01926V21.048ZM5.57146 21.048C6.75144 21.0445 7.88237 20.5755 8.71844 19.7428L5.89578 16.9086C5.8065 16.9976 5.68572 17.0476 5.55972 17.048L5.57146 21.048ZM8.72132 19.7399L12.3297 16.1316L9.50125 13.3032L5.8929 16.9115L8.72132 19.7399ZM12.3289 16.1324C12.2402 16.2209 12.1599 16.2286 12.1363 16.2286C12.1126 16.2286 12.0316 16.2209 11.9423 16.1316L14.7707 13.3032C13.3375 11.87 10.9349 11.8712 9.50207 13.3023L12.3289 16.1324ZM11.9424 16.1317L15.5379 19.7264L18.366 16.8977L14.7705 13.303L11.9424 16.1317ZM15.541 19.7296C16.3774 20.562 17.5085 21.0306 18.6884 21.0336L18.6984 17.0336C18.5726 17.0333 18.452 16.9833 18.3628 16.8945L15.541 19.7296ZM18.6934 21.0336H19.9481V17.0336H18.6934V21.0336ZM19.9341 21.0335C19.7448 21.0322 19.5574 20.9944 19.3823 20.9223L20.9059 17.2238C20.6064 17.1005 20.286 17.0359 19.9621 17.0336L19.9341 21.0335ZM21.5583 20.4873L24.3175 17.728L21.4891 14.8996L18.7299 17.6589L21.5583 20.4873ZM24.3173 17.7283C24.8413 17.2045 25.257 16.5825 25.5406 15.898L21.8452 14.3669C21.7627 14.566 21.6418 14.747 21.4894 14.8993L24.3173 17.7283ZM25.5406 15.898C25.8242 15.2134 25.9702 14.4797 25.9702 13.7388H21.9702C21.9702 13.9543 21.9278 14.1678 21.8452 14.3669L25.5406 15.898ZM25.9702 13.7388C25.9702 12.9978 25.8242 12.2641 25.5406 11.5796L21.8452 13.1106C21.9278 13.3098 21.9702 13.5232 21.9702 13.7388H25.9702ZM25.5406 11.5796C25.257 10.895 24.8413 10.2731 24.3173 9.74922L21.4894 12.5782C21.6418 12.7306 21.7627 12.9115 21.8452 13.1106L25.5406 11.5796Z" fill="#CA34ED" mask="url(#path-3-inside-1_445_6206)"/>
</g>
<defs>
<clipPath id="clip0_445_6206">
<rect width="24" height="25.7468" fill="white"/>
</clipPath>
</defs>
</svg>
